<?xml version="1.0" encoding="utf-8"?>
<!-- Generator: Adobe Illustrator 18.1.0, SVG Export Plug-In . SVG Version: 6.00 Build 0)  -->
<svg version="1.1"
	 id="Ebene_1" inkscape:version="0.48.5 r10040" sodipodi:docname="VALMANO_logo-1.svg" xmlns:dc="http://purl.org/dc/elements/1.1/" xmlns:cc="http://creativecommons.org/ns#" xmlns:rdf="http://www.w3.org/1999/02/22-rdf-syntax-ns#" xmlns:svg="http://www.w3.org/2000/svg" xmlns:sodipodi="http://sodipodi.sourceforge.net/DTD/sodipodi-0.dtd" xmlns:inkscape="http://www.inkscape.org/namespaces/inkscape"
	 xmlns="http://www.w3.org/2000/svg" xmlns:xlink="http://www.w3.org/1999/xlink" x="0px" y="0px" viewBox="0 208 841.9 208.5"
	 enable-background="new 0 208 841.9 208.5" xml:space="preserve">
<sodipodi:namedview  inkscape:window-width="1206" inkscape:pageshadow="2" inkscape:window-height="690" inkscape:pageopacity="0" inkscape:current-layer="g3" inkscape:window-maximized="0" inkscape:window-y="0" inkscape:window-x="0" inkscape:cy="65.5" inkscape:cx="245.5" inkscape:zoom="0.67820774" showgrid="false" guidetolerance="10" gridtolerance="10" objecttolerance="10" borderopacity="1" pagecolor="#ffffff" bordercolor="#666666" id="namedview7">
	</sodipodi:namedview>
<g>
	<path fill="#231F20" d="M758.8,244.7c1.5-4.3,3.8-8.1,6.7-11.1c2.9-3.3,6.3-5.7,10.5-7.5c4.1-1.9,8.6-2.7,13.5-2.7
		c5,0,9.6,0.9,13.7,2.7c4.1,1.9,7.5,4.3,10.5,7.5s5.1,6.9,6.7,11.1c1.5,4.3,2.4,8.9,2.4,13.9c0,5.1-0.9,9.9-2.4,14.2
		c-1.5,4.3-3.9,8.1-6.9,11.3s-6.5,5.7-10.6,7.4c-4.1,1.7-8.6,2.7-13.5,2.7s-9.4-0.9-13.4-2.7c-4.1-1.7-7.5-4.3-10.5-7.4
		c-2.9-3.3-5.3-6.9-6.9-11.3c-1.5-4.3-2.4-9.1-2.4-14.2C756.4,253.6,757.3,249,758.8,244.7 M741.7,279.4c2.6,6.2,6.2,11.7,10.8,16.1
		c4.6,4.5,10.1,8.1,16.5,10.5c6.3,2.6,13.2,3.8,20.7,3.8s14.6-1.2,20.9-3.8c6.3-2.6,11.8-6,16.5-10.5c4.6-4.5,8.2-9.9,10.8-16.1
		s3.9-13.2,3.9-20.7c0-7.7-1.4-14.7-3.9-20.9c-2.6-6.2-6.2-11.5-10.8-15.9c-4.6-4.3-10.1-7.7-16.5-10.1c-6.3-2.4-13.4-3.6-20.9-3.6
		s-14.4,1.2-20.7,3.6c-6.3,2.4-11.8,5.7-16.5,10.1c-4.6,4.3-8.2,9.6-10.8,15.9c-2.6,6.2-3.9,13.2-3.9,20.9
		C737.7,266.2,739.1,273,741.7,279.4 M611.2,307.3h17.1v-74.8h0.3l46,74.8h21.8v-96.7h-17.1V283h-0.2l-44.9-72.4h-22.8v96.7H611.2z
		 M506.9,270.4l15.1-39.3l14.9,39.3H506.9z M473,307.3h19.2l8.7-22.1h42l9.1,22.1h19.7l-41.8-96.7H515L473,307.3z M331.7,307.3h16.5
		v-77.7h0.3l28.8,77.7h12l29.3-77.7h0.3v77.7h17.1v-96.7H409l-24.9,68.6h-0.3l-25.2-68.8h-26.9V307.3z M234.6,307.3h58.3v-15.4
		h-41.2v-81.4h-17.1V307.3z M135.7,270.4l15.1-39.3l14.9,39.3H135.7z M101.9,307.3h19.2l8.7-22.1h42l9.1,22.1h19.7L159,210.6h-14.9
		L101.9,307.3z M38.3,307.3h14.9L92,210.6H73.5L46.6,285H46l-26.6-74.4H0.1L38.3,307.3z"/>
	<path fill="#231F20" d="M711,389.9c0-3.1,0.3-6.2,1-8.2c1.2-4.1,3.4-7.2,5.7-7.2c1.4,0,2.2,1.5,4.6,1.5c2.2,0,3.4-1,3.4-2.9
		c0-2.1-1.5-3.3-4.1-3.3c-3.9,0-8.1,3.3-10.1,7.9h-0.2l-0.9-7.2l-10.3,2.2v2.1c5,0,5.1,0.3,5.1,11v6.9c0,5.8-0.5,6.7-5,6.9v2.1h15.6
		v-2.1c-4.5-0.3-4.8-0.9-4.8-7.2v-2.4H711z M672.9,380c1-5,3.8-7.5,7.9-7.5c3.9,0,6.5,2.4,6.5,5.8c0,1.4-0.3,1.7-3.4,1.7H672.9z
		 M691.4,394.2c-2.9,3.3-5.7,4.6-8.9,4.6c-6.3,0-10.3-5.3-10.3-13.5c0-1,0-2.1,0.2-2.6h19.2c1.5,0,1.9-0.2,1.9-1.2
		c0-7.5-4.5-11.8-11.8-11.8c-9.4,0-16.1,6.9-16.1,16.5c0,9.4,6.2,15.8,15.3,15.8c5,0,8.9-1.9,12.3-6L691.4,394.2z M648.7,357.9
		c0,2.1,1.5,3.6,3.6,3.6c2.1,0,3.6-1.5,3.6-3.6s-1.5-3.6-3.6-3.6C650.3,354.1,648.7,355.8,648.7,357.9 M655.6,369.7l-11.5,2.2v2.1
		c3.9,0,5,0.5,5.3,2.4c0.3,1,0.3,4.1,0.3,8.6v7.5c0,5.5-0.9,6.7-5.7,6.9v2.1h16.8v-2.1c-4.6-0.2-5.5-1.2-5.5-7.2v-22.5H655.6z
		 M632.4,352.7l-11.1,2.2v2.1c3.8,0,4.8,0.5,5.3,2.2c0.2,1,0.3,3.9,0.3,8.2v25.2c0,5.3-0.9,6.5-5.5,6.7v2.1h16.1v-2.1
		c-4.5-0.2-5.1-1.2-5.1-7V352.7z M595.1,380c1-5,3.8-7.5,7.9-7.5c3.9,0,6.5,2.4,6.5,5.8c0,1.4-0.3,1.7-3.4,1.7H595.1z M613.6,394.2
		c-2.9,3.3-5.7,4.6-8.9,4.6c-6.3,0-10.3-5.3-10.3-13.5c0-1,0-2.1,0.2-2.6h19.4c1.5,0,1.9-0.2,1.9-1.2c0-7.5-4.5-11.8-11.8-11.8
		c-9.4,0-16.1,6.9-16.1,16.5c0,9.4,6.2,15.8,15.3,15.8c5,0,8.9-1.9,12.3-6L613.6,394.2z M558.7,380.3h0.2l7.2,21.6h2.2l9.1-22.5
		c2.4-6.2,3.3-7.2,5.5-7.2v-2.1h-11.7v2.1c3.1,0,3.9,0.3,3.9,2.1c0,1.4-0.5,2.9-2.4,8.1l-3.4,9.4h-0.2l-7.7-21.8h-1.9l-8.6,21.8
		h-0.5l-3.9-14.1c-0.3-1.5-0.7-2.6-0.7-3.3c0-1.7,1-2.4,4.1-2.4v-2.1h-15.4v2.1c3.4,0,4.5,0.9,5.8,5.1l7.5,24.3h2.2L558.7,380.3z
		 M520,385.3c0,3.3-0.2,4.5-1,6.3c-1.9,4.5-4.6,6.7-8.1,6.7c-4.3,0-6.3-3.8-6.3-12.2v-15.9h-10.6v2.1c4.5,0.3,4.8,0.9,4.8,7.4v9.3
		c0,4.8,0.5,7.7,1.9,9.4c1.5,2.1,5,3.4,8.2,3.4c4.3,0,8.2-2.2,11.1-7h0.2l0.7,7l9.6-0.7V399c-3.6,0-4.5-0.3-4.8-2.4
		c-0.2-1.4-0.3-4.1-0.3-8.6v-18h-10.6v2.1c4.5,0.5,4.8,0.9,4.8,7.4v5.8H520z M480.4,403.8c0,6.3-1.9,9.9-5,9.9
		c-1.5,0-2.2-0.7-3.6-3.3c-1.2-2.2-1.9-2.7-3.3-2.7c-1.9,0-2.9,1-2.9,3.1c0,3.4,3.6,5.7,8.9,5.7c7.9,0,12.2-5.3,12.2-15.1v-35.8
		c0-5.8,0.7-6.9,5.8-7v-2.2h-17.8v2.2c5,0.2,5.8,1.2,5.8,6.7v38.6H480.4z M425.8,380c1-5,3.8-7.5,7.9-7.5c3.9,0,6.5,2.4,6.5,5.8
		c0,1.4-0.3,1.7-3.4,1.7H425.8z M444.3,394.2c-2.9,3.3-5.7,4.6-8.9,4.6c-6.3,0-10.3-5.3-10.3-13.5c0-1,0-2.1,0.2-2.6h19.2
		c1.5,0,1.9-0.2,1.9-1.2c0-7.5-4.5-11.8-11.8-11.8c-9.4,0-16.1,6.9-16.1,16.5c0,9.4,6.2,15.8,15.3,15.8c5,0,8.9-1.9,12.3-6
		L444.3,394.2z M387.4,384.3c0-3.8,0.2-4.6,1-6.3c1.7-3.1,4.8-5.1,8.2-5.1c4.8,0,6.7,3.1,6.7,12v7.7c0,5.8-0.5,6.5-4.8,6.9v2.1h15.1
		v-2.1c-4.3-0.3-4.8-0.9-4.8-7.2v-9.8c0-5-0.5-7.5-1.9-9.4c-1.5-2.1-4.8-3.3-8.2-3.3c-4.6,0-8.7,2.2-11.7,5.8h-0.2l-0.7-5.8
		l-9.4,2.2v1.9c3.4,0,4.3,0.3,4.6,2.4c0.2,1,0.3,3.9,0.3,8.6v7.7c0,5.8-0.5,6.5-5,6.9v2.1h15.3v-2.1c-4.5-0.3-4.8-0.9-4.8-7.2v-7.9
		H387.4z M358.4,357.9c0,2.1,1.5,3.6,3.6,3.6c2.1,0,3.6-1.5,3.6-3.6s-1.5-3.6-3.6-3.6C360,354.1,358.4,355.8,358.4,357.9
		 M365.1,369.7l-11.5,2.2v2.1c3.9,0,5,0.5,5.3,2.4c0.3,1,0.3,4.1,0.3,8.6v7.5c0,5.5-0.9,6.7-5.7,6.9v2.1h16.8v-2.1
		c-4.6-0.2-5.5-1.2-5.5-7.2v-22.5H365.1z M342.2,352.7L331,355v2.1c3.8,0,4.8,0.5,5.3,2.2c0.2,1,0.3,3.9,0.3,8.2v25.2
		c0,5.3-0.9,6.5-5.5,6.7v2.1h16.1v-2.1c-4.5-0.2-5.1-1.2-5.1-7V352.7z M300.5,384.3c0-3.8,0.2-4.6,1-6.3c1.7-3.1,4.8-5.1,8.2-5.1
		c4.8,0,6.7,3.1,6.7,12v7.7c0,5.8-0.5,6.5-4.8,6.9v2.1h15.1v-2.1c-4.3-0.3-4.8-0.9-4.8-7.2v-9.8c0-5-0.5-7.5-1.9-9.4
		c-1.5-2.1-4.8-3.3-8.2-3.3c-4.6,0-8.7,2.2-11.7,5.8H300l-0.7-5.8l-9.4,2.2v1.9c3.4,0,4.3,0.3,4.6,2.4c0.2,1,0.3,3.9,0.3,8.6v7.7
		c0,5.8-0.5,6.5-5,6.9v2.1h15.4v-2.1c-4.5-0.3-4.8-0.9-4.8-7.2C300.5,392.2,300.5,384.3,300.5,384.3z M259.5,398.7
		c-10.3,0-16.8-7.5-16.8-19.4c0-12.5,6.5-20.4,16.8-20.4c10.3,0,16.8,7.9,16.8,20.4C276.3,391.1,269.8,398.7,259.5,398.7
		 M259.5,355.7c-13.7,0-24.3,10.3-24.3,23.5c0,12.7,10.8,22.8,24.3,22.8s24.3-10.1,24.3-22.8C283.9,365.9,273.2,355.7,259.5,355.7
		 M195.7,389.9c0-3.1,0.3-6.2,1-8.2c1.2-4.1,3.4-7.2,5.7-7.2c1.4,0,2.2,1.5,4.6,1.5c2.2,0,3.4-1,3.4-2.9c0-2.1-1.5-3.3-4.1-3.3
		c-3.9,0-8.1,3.3-10.1,7.9h-0.2l-0.9-7.2l-10.3,2.2v2.1c5,0,5.1,0.3,5.1,11v6.9c0,5.8-0.5,6.7-5,6.9v2.1h15.6v-2.1
		c-4.5-0.3-4.8-0.9-4.8-7.2v-2.4H195.7z M152.9,384.5c0-3.6,0.2-4.6,1-6.3c1.7-3.3,5-5.3,8.6-5.3c4.8,0,6.7,3.3,6.7,12.2v7.4
		c0,5.8-0.5,6.7-5,6.9v2.1h15.4v-2.1c-4.5-0.3-4.8-0.9-4.8-7.2v-9.4c0-5-0.5-7.7-1.9-9.4c-1.7-2.1-4.8-3.4-8.4-3.4
		c-4.3,0-9.1,2.2-11.5,5.3h-0.2v-22.3l-10.8,2.2v2.1c3.4,0,4.5,0.5,4.8,2.4c0.3,1.4,0.3,4.1,0.3,8.6v24.5c0,5.8-0.5,6.5-5,6.9v2.1
		h15.6v-2.1c-4.5-0.3-4.8-0.9-4.8-7.2v-7.7H152.9z M128.7,367.3c0-7,0.7-8.7,5.8-8.9v-2.2h-17.8v2.2c5,0.2,5.8,1.9,5.8,8.4v23.8
		c0,7.2-0.9,8.2-6.5,8.4v2.2h19V399c-5.5-0.2-6.3-1-6.3-8.9V367.3z"/>
</g>
</svg>
